{
  "source": "C:\\Users\\Peter\\Desktop\\stuff\\MIUN\\quantitative_research\\video_compression\\videos\\BVI-HD\\BVI-HD_CDVL_videos\\ORIG\\Hamster_1920x1080_60fps.mp4",
  "output": "C:\\Users\\Peter\\Desktop\\stuff\\MIUN\\quantitative_research\\video_compression\\compressed_videos\\BVI-HD\\vp9\\2\\Hamster_1920x1080_60fps_vp9.webm",
  "codec": "vp9",
  "ok": "Input #0, mov,mp4,m4a,3gp,3g2,mj2, from 'C:\\Users\\Peter\\Desktop\\stuff\\MIUN\\quantitative_research\\video_compression\\videos\\BVI-HD\\BVI-HD_CDVL_videos\\ORIG\\Hamster_1920x1080_60fps.mp4':\n  Metadata:\n    major_brand     : isom\n    minor_version   : 512\n    compatible_brands: isomiso2avc1mp41\n    encoder         : Lavf54.28.101\n  Duration: 00:00:05.00, start: 0.000000, bitrate: 208485 kb/s\n  Stream #0:0[0x1](und): Video: h264 (High 4:4:4 Predictive) (avc1 / 0x31637661), yuv420p(progressive), 1920x1080, 208481 kb/s, 60 fps, 60 tbr, 60 tbn (default)\n    Metadata:\n      handler_name    : VideoHandler\n      vendor_id       : [0][0][0][0]\n[out#0/webm @ 000002dc62519780] Codec AVOption b:a (set bitrate (in bits/s)) has not been used for any stream. The most likely reason is either wrong type (e.g. a video option with no video streams) or that it is a private option of some decoder which was not actually used for any stream.\nStream mapping:\n  Stream #0:0 -> #0:0 (h264 (native) -> vp9 (libvpx-vp9))\nPress [q] to stop, [?] for help\n[libvpx-vp9 @ 000002dc62c9a040] v1.15.2-100-g40561f514\nOutput #0, webm, to 'C:\\Users\\Peter\\Desktop\\stuff\\MIUN\\quantitative_research\\video_compression\\compressed_videos\\BVI-HD\\vp9\\2\\Hamster_1920x1080_60fps_vp9.webm':\n  Metadata:\n    major_brand     : isom\n    minor_version   : 512\n    compatible_brands: isomiso2avc1mp41\n    encoder         : Lavf62.3.100\n  Stream #0:0(und): Video: vp9, yuv420p(tv, progressive), 1920x1080, q=2-31, 2000 kb/s, 60 fps, 1k tbn (default)\n    Metadata:\n      encoder         : Lavc62.11.100 libvpx-vp9\n      handler_name    : VideoHandler\n      vendor_id       : [0][0][0][0]\n    Side data:\n      cpb: bitrate max/min/avg: 0/0/0 buffer size: 2000000 vbv_delay: N/A\nframe=    3 fps=0.0 q=60.0 size=       1KiB time=00:00:00.05 bitrate= 101.3kbits/s speed=0.0971x elapsed=0:00:00.51    \nframe=   10 fps=9.7 q=49.0 size=       1KiB time=00:00:00.16 bitrate=  30.4kbits/s speed=0.162x elapsed=0:00:01.02    \nframe=   16 fps= 10 q=51.0 size=       1KiB time=00:00:00.26 bitrate=  19.0kbits/s speed=0.172x elapsed=0:00:01.55    \nframe=   24 fps= 12 q=50.0 size=       1KiB time=00:00:00.38 bitrate=  13.2kbits/s speed=0.185x elapsed=0:00:02.07    \nframe=   31 fps= 12 q=51.0 size=       1KiB time=00:00:00.51 bitrate=   9.8kbits/s speed=0.196x elapsed=0:00:02.63    \nframe=   36 fps= 11 q=52.0 size=       1KiB time=00:00:00.60 bitrate=   8.4kbits/s speed=0.191x elapsed=0:00:03.14    \nframe=   43 fps= 12 q=48.0 size=       1KiB time=00:00:00.71 bitrate=   7.1kbits/s speed=0.196x elapsed=0:00:03.66    \nframe=   49 fps= 12 q=34.0 size=       1KiB time=00:00:00.81 bitrate=   6.2kbits/s speed=0.194x elapsed=0:00:04.20    \nframe=   56 fps= 12 q=46.0 size=       1KiB time=00:00:00.93 bitrate=   5.4kbits/s speed=0.197x elapsed=0:00:04.73    \nframe=   62 fps= 12 q=45.0 size=       1KiB time=00:00:01.03 bitrate=   4.9kbits/s speed=0.195x elapsed=0:00:05.28    \nframe=   68 fps= 12 q=46.0 size=       1KiB time=00:00:01.13 bitrate=   4.5kbits/s speed=0.195x elapsed=0:00:05.82    \nframe=   74 fps= 12 q=48.0 size=       1KiB time=00:00:01.23 bitrate=   4.1kbits/s speed=0.194x elapsed=0:00:06.34    \nframe=   81 fps= 12 q=51.0 size=       1KiB time=00:00:01.35 bitrate=   3.8kbits/s speed=0.197x elapsed=0:00:06.86    \nframe=   86 fps= 12 q=52.0 size=       1KiB time=00:00:01.43 bitrate=   3.5kbits/s speed=0.194x elapsed=0:00:07.40    \nframe=   92 fps= 12 q=53.0 size=       1KiB time=00:00:01.53 bitrate=   3.3kbits/s speed=0.194x elapsed=0:00:07.92    \nframe=   98 fps= 12 q=53.0 size=       1KiB time=00:00:01.63 bitrate=   3.1kbits/s speed=0.194x elapsed=0:00:08.44    \nframe=  103 fps= 11 q=54.0 size=       1KiB time=00:00:01.71 bitrate=   2.9kbits/s speed=0.192x elapsed=0:00:08.96    \nframe=  108 fps= 11 q=53.0 size=       1KiB time=00:00:01.80 bitrate=   2.8kbits/s speed=0.19x elapsed=0:00:09.46    \nframe=  115 fps= 12 q=53.0 size=       1KiB time=00:00:01.91 bitrate=   2.6kbits/s speed=0.192x elapsed=0:00:09.99    \nframe=  121 fps= 11 q=51.0 size=       1KiB time=00:00:02.01 bitrate=   2.5kbits/s speed=0.191x elapsed=0:00:10.54    \nframe=  127 fps= 11 q=52.0 size=       1KiB time=00:00:02.11 bitrate=   2.4kbits/s speed=0.191x elapsed=0:00:11.08    \nframe=  134 fps= 12 q=51.0 size=     256KiB time=00:00:02.23 bitrate= 939.0kbits/s speed=0.192x elapsed=0:00:11.61    \nframe=  140 fps= 12 q=35.0 size=     256KiB time=00:00:02.33 bitrate= 898.8kbits/s speed=0.192x elapsed=0:00:12.12    \nframe=  147 fps= 12 q=49.0 size=     256KiB time=00:00:02.45 bitrate= 856.0kbits/s speed=0.194x elapsed=0:00:12.66    \nframe=  153 fps= 12 q=48.0 size=     256KiB time=00:00:02.55 bitrate= 822.4kbits/s speed=0.193x elapsed=0:00:13.19    \nframe=  159 fps= 12 q=48.0 size=     256KiB time=00:00:02.65 bitrate= 791.4kbits/s speed=0.193x elapsed=0:00:13.71    \nframe=  165 fps= 12 q=49.0 size=     256KiB time=00:00:02.73 bitrate= 767.3kbits/s speed=0.191x elapsed=0:00:14.28    \nframe=  168 fps= 11 q=49.0 size=     256KiB time=00:00:02.80 bitrate= 749.0kbits/s speed=0.188x elapsed=0:00:14.89    \nframe=  171 fps= 11 q=49.0 size=     256KiB time=00:00:02.85 bitrate= 735.8kbits/s speed=0.185x elapsed=0:00:15.43    \nframe=  174 fps= 11 q=49.0 size=     256KiB time=00:00:02.90 bitrate= 723.2kbits/s speed=0.182x elapsed=0:00:15.97    \nframe=  179 fps= 11 q=49.0 size=     256KiB time=00:00:02.98 bitrate= 703.0kbits/s speed=0.181x elapsed=0:00:16.49    \nframe=  184 fps= 11 q=50.0 size=     256KiB time=00:00:03.06 bitrate= 683.9kbits/s speed=0.18x elapsed=0:00:17.01    \nframe=  189 fps= 11 q=50.0 size=     256KiB time=00:00:03.15 bitrate= 665.8kbits/s speed=0.18x elapsed=0:00:17.54    \nframe=  194 fps= 11 q=49.0 size=     256KiB time=00:00:03.23 bitrate= 648.6kbits/s speed=0.179x elapsed=0:00:18.08    \nframe=  199 fps= 11 q=50.0 size=     256KiB time=00:00:03.31 bitrate= 632.3kbits/s speed=0.178x elapsed=0:00:18.65    \nframe=  204 fps= 11 q=51.0 size=     256KiB time=00:00:03.40 bitrate= 616.8kbits/s speed=0.177x elapsed=0:00:19.19    \nframe=  208 fps= 11 q=53.0 size=     256KiB time=00:00:03.46 bitrate= 604.9kbits/s speed=0.176x elapsed=0:00:19.71    \nframe=  212 fps= 10 q=38.0 size=     256KiB time=00:00:03.53 bitrate= 593.5kbits/s speed=0.174x elapsed=0:00:20.25    \nframe=  218 fps= 10 q=57.0 size=     256KiB time=00:00:03.63 bitrate= 577.2kbits/s speed=0.175x elapsed=0:00:20.77    \nframe=  221 fps= 10 q=58.0 size=     256KiB time=00:00:03.68 bitrate= 569.4kbits/s speed=0.173x elapsed=0:00:21.31    \nframe=  225 fps= 10 q=57.0 size=     256KiB time=00:00:03.75 bitrate= 559.2kbits/s speed=0.171x elapsed=0:00:21.87    \nframe=  229 fps= 10 q=59.0 size=     256KiB time=00:00:03.81 bitrate= 549.5kbits/s speed=0.17x elapsed=0:00:22.39    \nframe=  234 fps= 10 q=59.0 size=     256KiB time=00:00:03.90 bitrate= 537.7kbits/s speed=0.17x elapsed=0:00:22.93    \nframe=  239 fps= 10 q=60.0 size=     256KiB time=00:00:03.98 bitrate= 526.5kbits/s speed=0.17x elapsed=0:00:23.49    \nframe=  242 fps= 10 q=45.0 size=     256KiB time=00:00:04.03 bitrate= 520.0kbits/s speed=0.168x elapsed=0:00:24.03    \nframe=  246 fps= 10 q=59.0 size=     256KiB time=00:00:04.10 bitrate= 511.5kbits/s speed=0.167x elapsed=0:00:24.55    \nframe=  250 fps= 10 q=57.0 size=     256KiB time=00:00:04.16 bitrate= 503.3kbits/s speed=0.166x elapsed=0:00:25.07    \nframe=  255 fps= 10 q=55.0 size=     256KiB time=00:00:04.25 bitrate= 493.4kbits/s speed=0.166x elapsed=0:00:25.59    \nframe=  261 fps= 10 q=52.0 size=     768KiB time=00:00:04.35 bitrate=1446.3kbits/s speed=0.166x elapsed=0:00:26.13    \nframe=  267 fps= 10 q=51.0 size=     768KiB time=00:00:04.45 bitrate=1413.8kbits/s speed=0.167x elapsed=0:00:26.66    \nframe=  271 fps= 10 q=52.0 size=     768KiB time=00:00:04.51 bitrate=1392.9kbits/s speed=0.166x elapsed=0:00:27.18    \nframe=  276 fps= 10 q=50.0 size=     768KiB time=00:00:04.60 bitrate=1367.7kbits/s speed=0.166x elapsed=0:00:27.71    \nframe=  276 fps=9.8 q=50.0 size=     768KiB time=00:00:04.60 bitrate=1367.7kbits/s speed=0.163x elapsed=0:00:28.26    \nframe=  276 fps=9.6 q=50.0 size=     768KiB time=00:00:04.60 bitrate=1367.7kbits/s speed=0.16x elapsed=0:00:28.78    \nframe=  276 fps=9.4 q=50.0 size=     768KiB time=00:00:04.60 bitrate=1367.7kbits/s speed=0.157x elapsed=0:00:29.33    \nframe=  276 fps=9.2 q=50.0 size=     768KiB time=00:00:04.60 bitrate=1367.7kbits/s speed=0.154x elapsed=0:00:29.85    \n[out#0/webm @ 000002dc62519780] video:1143KiB audio:0KiB subtitle:0KiB other streams:0KiB global headers:0KiB muxing overhead: 0.241571%\nframe=  300 fps= 10 q=47.0 Lsize=    1146KiB time=00:00:05.00 bitrate=1877.6kbits/s speed=0.167x elapsed=0:00:29.96    \n",
  "seconds": 30.20650291442871,
  "probe_out": {}
}